<svg width="20" height="21" viewBox="0 0 20 21" fill="none" xmlns="http://www.w3.org/2000/svg">
<path fill-rule="evenodd" clip-rule="evenodd" d="M1.27869 11.747L15.6237 11.747L9.35069 18.023C9.10533 18.2566 8.96646 18.5807 8.96646 18.9195C8.96646 19.2583 9.10533 19.5823 9.35069 19.816C9.58435 20.0613 9.90837 20.2002 10.2472 20.2002C10.586 20.2002 10.91 20.0613 11.1437 19.816L19.4667 11.491C19.9799 10.9044 19.9799 10.0286 19.4667 9.44197L11.1417 1.11697C10.908 0.871613 10.584 0.732746 10.2452 0.732746C9.90637 0.732746 9.58235 0.871613 9.34869 1.11697H9.34869C9.10333 1.35064 8.96446 1.67465 8.96446 2.01347C8.96446 2.35229 9.10333 2.67631 9.34869 2.90997L15.6237 9.18497L1.27869 9.18497C0.932945 9.16401 0.594795 9.29223 0.349873 9.53715C0.104946 9.78208 -0.0232735 10.1202 -0.00231171 10.466C-0.0232735 10.8117 0.104946 11.1499 0.349869 11.3948C0.594795 11.6397 0.932941 11.7679 1.27869 11.747Z" fill="#377DFF"/>
</svg>
