<svg width="80" height="80" viewBox="0 0 80 80" fill="none" xmlns="http://www.w3.org/2000/svg">
<circle cx="39.998" cy="40" r="40" fill="#FF715B"/>
<path fill-rule="evenodd" clip-rule="evenodd" d="M42.5642 45.691L46.7032 41.552C47.8453 40.4079 48.1273 38.6614 47.4032 37.216L47.1692 36.747C46.4451 35.3016 46.727 33.5551 47.8692 32.411L53.0022 27.278C53.2156 27.0662 53.5176 26.9694 53.8144 27.0177C54.1112 27.066 54.3669 27.2535 54.5022 27.522L56.5862 31.669C58.1727 34.8413 57.5511 38.6729 55.0432 41.181L43.7762 52.447C41.0461 55.1769 37.0079 56.1301 33.3452 54.909L28.8102 53.398C28.5014 53.2951 28.2679 53.0396 28.1931 52.7228C28.1183 52.406 28.213 52.0731 28.4432 51.843L33.4222 46.863C34.5663 45.7209 36.3128 45.4389 37.7582 46.163L38.2272 46.397C39.6741 47.1201 41.4213 46.8356 42.5642 45.691Z" fill="white"/>
<path opacity="0.3" fill-rule="evenodd" clip-rule="evenodd" d="M44.5709 29.206L44.2119 32.945C41.4232 32.675 38.6595 33.6642 36.6754 35.6424C34.6913 37.6207 33.6941 40.3815 33.9559 43.171L30.2159 43.52C29.85 39.6156 31.2459 35.7517 34.0228 32.9828C36.7997 30.2138 40.6676 28.8289 44.5709 29.206L44.5709 29.206ZM45.2279 21.722L44.8799 25.458C39.8716 24.9873 34.9138 26.7721 31.3549 30.3273C27.7959 33.8824 26.0056 38.8382 26.4709 43.847L22.7299 44.19C22.1657 38.0704 24.3552 32.0172 28.7036 27.6744C33.052 23.3316 39.108 21.1499 45.2269 21.722L45.2279 21.722Z" fill="white"/>
</svg>
