<svg width="80" height="80" viewBox="0 0 80 80" fill="none" xmlns="http://www.w3.org/2000/svg">
<circle cx="39.998" cy="40" r="40" fill="#377DFF"/>
<path fill-rule="evenodd" clip-rule="evenodd" d="M26.9681 28.7061H52.0851C54.0667 28.7061 55.6731 30.3125 55.6731 32.2941V48.4411C55.6724 50.4239 54.0655 52.0297 52.0839 52.0291L26.9681 52.0291C24.9865 52.0291 23.3801 50.4227 23.3801 48.4411L23.3801 32.2941C23.3801 30.3125 24.9865 28.7061 26.9681 28.7061ZM50.5501 32.0061L39.5271 37.9421L28.5031 32.0061C27.8505 31.6678 27.0471 31.9157 26.6986 32.563C26.3501 33.2103 26.5854 34.0174 27.2271 34.3761L38.8891 40.6551C39.2874 40.8695 39.7668 40.8695 40.1651 40.6551L51.8261 34.3761C52.2575 34.1525 52.535 33.7137 52.5519 33.2281C52.5689 32.7424 52.3228 32.2854 51.9081 32.0322C51.4933 31.779 50.9743 31.769 50.5501 32.0061Z" fill="white"/>
</svg>
