<svg width="80" height="80" viewBox="0 0 80 80" fill="none" xmlns="http://www.w3.org/2000/svg">
<circle cx="39.998" cy="40" r="40" fill="#2DCA8C"/>
<path fill-rule="evenodd" clip-rule="evenodd" d="M26.165 36.25C26.165 28 31.665 22.5 39.915 22.5C47.5023 22.516 53.6491 28.6627 53.665 36.25C53.665 40.5267 49.675 46.399 41.695 53.867C40.6764 54.8204 39.1053 54.8599 38.04 53.959C30.1234 47.2643 26.165 41.3613 26.165 36.25ZM39.915 39C42.4462 39 44.498 36.9481 44.498 34.417C44.498 31.8859 42.4462 29.834 39.915 29.834C37.3839 29.834 35.332 31.8859 35.332 34.417C35.332 36.9481 37.3839 39 39.915 39H39.915Z" fill="white"/>
</svg>
