<svg width="29" height="29" viewBox="0 0 29 29" fill="none" xmlns="http://www.w3.org/2000/svg">
<path fill-rule="evenodd" clip-rule="evenodd" d="M14.5005 29C6.49239 29 0.000518799 22.5081 0.000518799 14.5C0.000519753 6.49187 6.49239 0 14.5005 0C22.5086 0 29.0005 6.49187 29.0005 14.5C28.9902 22.5036 22.5045 28.9894 14.5008 29H14.5005ZM26.7284 16.484C24.2248 15.7561 21.5939 15.5757 19.0144 15.955C20.0672 18.8246 20.8725 21.779 21.4214 24.786C24.2602 22.8698 26.182 19.8665 26.7324 16.486L26.7284 16.484ZM19.3407 25.919C18.7576 22.7127 17.8717 19.569 16.6947 16.53L16.6147 16.554C9.61472 18.989 7.11472 23.834 6.89972 24.287C10.4392 27.0515 15.2002 27.6772 19.3337 25.921L19.3407 25.919ZM5.29785 22.8001C7.63154 19.0141 11.1812 16.1322 15.3659 14.6261C15.5288 14.5721 15.6918 14.5261 15.8548 14.4811C15.5408 13.7741 15.2028 13.0711 14.8498 12.3811C10.7105 13.5637 6.42475 14.1549 2.11984 14.1371L2.11985 14.5141C2.11562 17.5744 3.24814 20.5273 5.29774 22.8L5.29785 22.8001ZM2.37552 11.981C6.24073 11.9616 10.0881 11.4549 13.8265 10.473C12.4258 8.00474 10.8932 5.61363 9.23555 3.31006C5.71922 4.96536 3.18085 8.17169 2.37652 11.974L2.37552 11.981ZM11.5996 2.48096C13.2946 4.79485 14.8372 7.21665 16.2176 9.73098C18.7661 8.89396 21.0198 7.34115 22.7096 5.25796C19.6855 2.5668 15.535 1.5275 11.5996 2.47596L11.5996 2.48096ZM24.0879 6.68799C22.2445 8.8871 19.8613 10.5694 17.1719 11.57C17.4619 12.162 17.7399 12.76 17.9939 13.37C18.0939 13.587 18.1749 13.805 18.2599 14.01C21.1394 13.712 24.0473 13.8468 26.8869 14.41C26.8704 11.5963 25.8863 8.87392 24.0999 6.7L24.0879 6.68799Z" fill="#B0B7C3"/>
</svg>
