<svg width="147" height="38" viewBox="0 0 147 38" fill="none" xmlns="http://www.w3.org/2000/svg">
<path d="M144.73 12.7619V14.6146H137.506V12.7619H144.73ZM139.611 9.35278H141.753V22.915C141.753 23.5326 141.841 23.9958 142.016 24.3046C142.198 24.6072 142.428 24.811 142.706 24.916C142.991 25.0148 143.29 25.0642 143.605 25.0642C143.841 25.0642 144.034 25.0519 144.185 25.0272C144.337 24.9963 144.458 24.9716 144.548 24.9531L144.984 26.917C144.839 26.9726 144.636 27.0282 144.376 27.0838C144.116 27.1455 143.786 27.1764 143.387 27.1764C142.782 27.1764 142.189 27.0436 141.608 26.7781C141.033 26.5125 140.555 26.108 140.174 25.5645C139.799 25.021 139.611 24.3355 139.611 23.5079V9.35278Z" fill="white"/>
<path d="M125.71 18.4313V26.9911H123.568V8.0188H125.71V14.9852H125.892C126.218 14.2503 126.708 13.6666 127.362 13.2343C128.021 12.7958 128.899 12.5766 129.994 12.5766C130.944 12.5766 131.776 12.7711 132.49 13.1602C133.204 13.5431 133.757 14.1329 134.15 14.9296C134.55 15.7201 134.749 16.7268 134.749 17.9496V26.9911H132.608V18.0978C132.608 16.9677 132.32 16.0938 131.745 15.4762C131.177 14.8524 130.387 14.5405 129.377 14.5405C128.675 14.5405 128.046 14.6918 127.489 14.9945C126.938 15.2971 126.503 15.7387 126.182 16.3192C125.867 16.8997 125.71 17.6038 125.71 18.4313Z" fill="white"/>
<path d="M113.621 32.6236C112.586 32.6236 111.697 32.4877 110.953 32.216C110.209 31.9504 109.589 31.5984 109.092 31.1599C108.602 30.7276 108.212 30.2644 107.922 29.7703L109.628 28.5475C109.821 28.8069 110.066 29.1033 110.363 29.4368C110.659 29.7765 111.065 30.0699 111.579 30.3169C112.099 30.5701 112.78 30.6967 113.621 30.6967C114.746 30.6967 115.675 30.4188 116.407 29.863C117.139 29.3071 117.505 28.4363 117.505 27.2506V24.3603H117.324C117.167 24.6196 116.943 24.9408 116.652 25.3237C116.368 25.7004 115.957 26.037 115.418 26.3335C114.886 26.6237 114.166 26.7689 113.258 26.7689C112.133 26.7689 111.122 26.4971 110.227 25.9536C109.337 25.4102 108.633 24.6196 108.112 23.5821C107.598 22.5445 107.341 21.2847 107.341 19.8025C107.341 18.3449 107.592 17.0758 108.094 15.995C108.596 14.9081 109.295 14.0681 110.191 13.4753C111.086 12.8762 112.121 12.5767 113.294 12.5767C114.202 12.5767 114.922 12.7311 115.454 13.0399C115.993 13.3425 116.404 13.6883 116.689 14.0774C116.979 14.4603 117.203 14.7753 117.36 15.0223H117.578V12.7619H119.647V27.3988C119.647 28.6216 119.375 29.6159 118.83 30.3817C118.292 31.1537 117.566 31.7188 116.652 32.077C115.745 32.4414 114.734 32.6236 113.621 32.6236ZM113.548 24.8049C114.408 24.8049 115.134 24.6042 115.727 24.2028C116.32 23.8013 116.77 23.2239 117.079 22.4704C117.387 21.717 117.542 20.8153 117.542 19.7654C117.542 18.7402 117.39 17.8354 117.088 17.0511C116.785 16.2668 116.338 15.6523 115.745 15.2076C115.152 14.7629 114.42 14.5406 113.548 14.5406C112.641 14.5406 111.885 14.7753 111.28 15.2446C110.681 15.714 110.23 16.344 109.927 17.1345C109.631 17.925 109.483 18.802 109.483 19.7654C109.483 20.7535 109.634 21.6274 109.936 22.3871C110.245 23.1405 110.699 23.7334 111.298 24.1657C111.903 24.5919 112.653 24.8049 113.548 24.8049Z" fill="white"/>
<path d="M101.93 26.9912V12.762H104.072V26.9912H101.93ZM103.019 10.3905C102.601 10.3905 102.241 10.2453 101.939 9.95505C101.642 9.66479 101.494 9.31585 101.494 8.90824C101.494 8.50063 101.642 8.15169 101.939 7.86142C102.241 7.57116 102.601 7.42603 103.019 7.42603C103.436 7.42603 103.793 7.57116 104.09 7.86142C104.392 8.15169 104.544 8.50063 104.544 8.90824C104.544 9.31585 104.392 9.66479 104.09 9.95505C103.793 10.2453 103.436 10.3905 103.019 10.3905Z" fill="white"/>
<path d="M98.0071 8.0188V26.9911H95.8652V8.0188H98.0071Z" fill="white"/>
<path d="M92.3868 15.9487L90.4628 16.5045C90.3418 16.1772 90.1633 15.8591 89.9273 15.5504C89.6974 15.2354 89.3828 14.976 88.9835 14.7722C88.5842 14.5684 88.0729 14.4665 87.4497 14.4665C86.5966 14.4665 85.8857 14.6672 85.317 15.0686C84.7543 15.4639 84.473 15.9672 84.473 16.5786C84.473 17.1221 84.6666 17.5513 85.0538 17.8663C85.441 18.1813 86.046 18.4438 86.8689 18.6537L88.9381 19.1725C90.1845 19.4813 91.1132 19.9538 91.7243 20.5899C92.3354 21.2198 92.6409 22.0319 92.6409 23.0263C92.6409 23.8415 92.411 24.5702 91.9512 25.2125C91.4974 25.8548 90.8621 26.3612 90.0453 26.7318C89.2285 27.1024 88.2786 27.2876 87.1956 27.2876C85.7738 27.2876 84.597 26.9727 83.6652 26.3427C82.7335 25.7128 82.1436 24.7926 81.8955 23.5821L83.9284 23.0633C84.122 23.8291 84.4881 24.4035 85.0266 24.7864C85.5711 25.1693 86.282 25.3608 87.1593 25.3608C88.1576 25.3608 88.9502 25.1446 89.5371 24.7123C90.13 24.2738 90.4265 23.7488 90.4265 23.1374C90.4265 22.6434 90.2571 22.2296 89.9183 21.8961C89.5794 21.5564 89.0591 21.3032 88.3573 21.1364L86.0339 20.5806C84.7573 20.2718 83.8195 19.7932 83.2205 19.1447C82.6276 18.4901 82.3311 17.6718 82.3311 16.6898C82.3311 15.8869 82.552 15.1767 82.9936 14.5591C83.4414 13.9415 84.0494 13.4567 84.8178 13.1047C85.5923 12.7527 86.4696 12.5767 87.4497 12.5767C88.8292 12.5767 89.9122 12.8855 90.6988 13.503C91.4914 14.1206 92.054 14.9358 92.3868 15.9487Z" fill="white"/>
<path d="M69.7053 18.4314V26.9912H67.5635V12.7619H69.6327V14.9853H69.8142C70.1409 14.2627 70.6371 13.6821 71.3026 13.2437C71.9681 12.799 72.8273 12.5767 73.88 12.5767C74.8239 12.5767 75.6498 12.7743 76.3577 13.1695C77.0655 13.5586 77.6161 14.1515 78.0094 14.9482C78.4027 15.7387 78.5993 16.7392 78.5993 17.9497V26.9912H76.4575V18.0979C76.4575 16.9801 76.1731 16.1093 75.6044 15.4855C75.0357 14.8556 74.2552 14.5406 73.2629 14.5406C72.5792 14.5406 71.9681 14.6919 71.4296 14.9945C70.8972 15.2971 70.4767 15.7387 70.1682 16.3192C69.8596 16.8998 69.7053 17.6038 69.7053 18.4314Z" fill="white"/>
<path d="M61.4981 26.9912V12.762H63.6399V26.9912H61.4981ZM62.5872 10.3905C62.1697 10.3905 61.8097 10.2453 61.5072 9.95505C61.2107 9.66479 61.0625 9.31585 61.0625 8.90824C61.0625 8.50063 61.2107 8.15169 61.5072 7.86142C61.8097 7.57116 62.1697 7.42603 62.5872 7.42603C63.0047 7.42603 63.3616 7.57116 63.6581 7.86142C63.9606 8.15169 64.1119 8.50063 64.1119 8.90824C64.1119 9.31585 63.9606 9.66479 63.6581 9.95505C63.3616 10.2453 63.0047 10.3905 62.5872 10.3905Z" fill="white"/>
<path d="M46.5146 26.9911V8.0188H57.732V10.0568H48.7654V16.4674H57.1512V18.5055H48.7654V24.9531H57.8772V26.9911H46.5146Z" fill="white"/>
<ellipse cx="29.4925" cy="17.2869" rx="7.41143" ry="7.56522" fill="#16A816"/>
<path d="M23.4215 11.7566C23.4215 15.6684 20.3175 18.8218 16.5101 18.8218C12.7026 18.8218 9.59863 15.6684 9.59863 11.7566C9.59863 7.84488 12.7026 4.69141 16.5101 4.69141C20.3175 4.69141 23.4215 7.84488 23.4215 11.7566Z" fill="white" stroke="black"/>
<path d="M19.4342 24.8521C19.4342 28.7638 16.3302 31.9173 12.5228 31.9173C8.71531 31.9173 5.61133 28.7638 5.61133 24.8521C5.61133 20.9403 8.71531 17.7869 12.5228 17.7869C16.3302 17.7869 19.4342 20.9403 19.4342 24.8521Z" fill="white" stroke="black"/>
<path d="M26.3854 29.3914C26.3854 33.3031 23.2814 36.4566 19.4739 36.4566C15.6665 36.4566 12.5625 33.3031 12.5625 29.3914C12.5625 25.4796 15.6665 22.3262 19.4739 22.3262C23.2814 22.3262 26.3854 25.4796 26.3854 29.3914Z" fill="white" stroke="black"/>
<path d="M38.2438 28.8174C38.2438 32.7292 35.1398 35.8826 31.3323 35.8826C27.5249 35.8826 24.4209 32.7292 24.4209 28.8174C24.4209 24.9057 27.5249 21.7522 31.3323 21.7522C35.1398 21.7522 38.2438 24.9057 38.2438 28.8174Z" fill="white" stroke="black"/>
<path d="M42.2311 18.4348C42.2311 22.3466 39.1271 25.5001 35.3196 25.5001C31.5122 25.5001 28.4082 22.3466 28.4082 18.4348C28.4082 14.5231 31.5122 11.3696 35.3196 11.3696C39.1271 11.3696 42.2311 14.5231 42.2311 18.4348Z" fill="white" stroke="black"/>
<path d="M34.819 8.52176C34.819 12.4335 31.715 15.587 27.9075 15.587C24.1001 15.587 20.9961 12.4335 20.9961 8.52176C20.9961 4.61002 24.1001 1.45654 27.9075 1.45654C31.715 1.45654 34.819 4.61002 34.819 8.52176Z" fill="white" stroke="black"/>
<path d="M28.9928 19.3218C28.9928 23.2336 25.8888 26.387 22.0814 26.387C18.2739 26.387 15.1699 23.2336 15.1699 19.3218C15.1699 15.4101 18.2739 12.2566 22.0814 12.2566C25.8888 12.2566 28.9928 15.4101 28.9928 19.3218Z" fill="white" stroke="black"/>
<ellipse cx="28.5208" cy="18.4348" rx="7.41143" ry="7.56522" fill="#FD0F0F"/>
</svg>
