<svg width="130" height="32" viewBox="0 0 130 32" fill="none" xmlns="http://www.w3.org/2000/svg">
<path d="M128.649 9.56625V11.2132H122.228V9.56625H128.649ZM124.099 6.53595H126.003V18.5913C126.003 19.1403 126.081 19.552 126.237 19.8265C126.398 20.0955 126.603 20.2766 126.85 20.3699C127.103 20.4578 127.369 20.5017 127.649 20.5017C127.858 20.5017 128.03 20.4907 128.165 20.4688C128.299 20.4413 128.407 20.4193 128.488 20.4029L128.875 22.1486C128.746 22.198 128.566 22.2474 128.334 22.2968C128.103 22.3517 127.81 22.3792 127.455 22.3792C126.917 22.3792 126.39 22.2611 125.874 22.0251C125.363 21.789 124.938 21.4294 124.599 20.9464C124.266 20.4633 124.099 19.8539 124.099 19.1183V6.53595Z" fill="white"/>
<path d="M111.743 14.6058V22.2145H109.839V5.35022H111.743V11.5426H111.904C112.194 10.8893 112.63 10.3705 113.211 9.98625C113.797 9.59649 114.577 9.4016 115.55 9.4016C116.395 9.4016 117.134 9.57453 117.769 9.92038C118.403 10.2607 118.896 10.785 119.245 11.4932C119.6 12.1958 119.778 13.0907 119.778 14.1776V22.2145H117.874V14.3094C117.874 13.3048 117.618 12.528 117.107 11.979C116.602 11.4245 115.9 11.1473 115.002 11.1473C114.378 11.1473 113.819 11.2818 113.324 11.5508C112.834 11.8198 112.447 12.2123 112.162 12.7283C111.883 13.2444 111.743 13.8702 111.743 14.6058Z" fill="white"/>
<path d="M100.997 27.221C100.078 27.221 99.2873 27.1003 98.6258 26.8587C97.9643 26.6227 97.413 26.3098 96.972 25.92C96.5364 25.5357 96.1895 25.124 95.9313 24.6848L97.448 23.5979C97.6201 23.8284 97.8379 24.0919 98.1014 24.3884C98.3649 24.6903 98.7252 24.9511 99.1824 25.1707C99.6449 25.3957 100.25 25.5083 100.997 25.5083C101.998 25.5083 102.823 25.2612 103.474 24.7672C104.125 24.2731 104.45 23.499 104.45 22.445V19.8759H104.289C104.149 20.1064 103.95 20.3919 103.692 20.7322C103.439 21.0671 103.073 21.3663 102.595 21.6298C102.122 21.8878 101.482 22.0168 100.675 22.0168C99.6745 22.0168 98.7763 21.7753 97.9804 21.2922C97.1898 20.8091 96.5633 20.1064 96.1007 19.1842C95.6436 18.2619 95.415 17.142 95.415 15.8245C95.415 14.5289 95.6382 13.4008 96.0846 12.4401C96.531 11.4739 97.1522 10.7273 97.9481 10.2003C98.7441 9.6678 99.6637 9.40155 100.707 9.40155C101.514 9.40155 102.154 9.53879 102.627 9.81328C103.106 10.0823 103.471 10.3897 103.724 10.7355C103.982 11.0759 104.181 11.3559 104.321 11.5755H104.515V9.56624H106.354V22.5768C106.354 23.6637 106.112 24.5476 105.628 25.2283C105.149 25.9145 104.504 26.4168 103.692 26.7352C102.885 27.0591 101.987 27.221 100.997 27.221ZM100.933 20.2711C101.697 20.2711 102.342 20.0927 102.869 19.7359C103.396 19.379 103.797 18.8658 104.071 18.196C104.345 17.5263 104.482 16.7248 104.482 15.7915C104.482 14.8803 104.348 14.076 104.079 13.3788C103.81 12.6816 103.412 12.1354 102.885 11.7402C102.358 11.3449 101.707 11.1473 100.933 11.1473C100.126 11.1473 99.454 11.3559 98.9162 11.7731C98.3837 12.1903 97.9831 12.7503 97.7142 13.4529C97.4506 14.1556 97.3189 14.9351 97.3189 15.7915C97.3189 16.6699 97.4533 17.4467 97.7222 18.1219C97.9965 18.7916 98.3999 19.3187 98.9323 19.7029C99.4701 20.0817 100.137 20.2711 100.933 20.2711Z" fill="white"/>
<path d="M90.605 22.2145V9.56626H92.5088V22.2145H90.605ZM91.573 7.45823C91.202 7.45823 90.882 7.32922 90.6131 7.07121C90.3495 6.81319 90.2178 6.50302 90.2178 6.1407C90.2178 5.77839 90.3495 5.46822 90.6131 5.2102C90.882 4.95219 91.202 4.82318 91.573 4.82318C91.9441 4.82318 92.2614 4.95219 92.525 5.2102C92.7939 5.46822 92.9283 5.77839 92.9283 6.1407C92.9283 6.50302 92.7939 6.81319 92.525 7.07121C92.2614 7.32922 91.9441 7.45823 91.573 7.45823Z" fill="white"/>
<path d="M87.1177 5.35022V22.2145H85.2139V5.35022H87.1177Z" fill="white"/>
<path d="M82.1215 12.3989L80.4113 12.893C80.3037 12.602 80.1451 12.3193 79.9353 12.0448C79.7309 11.7649 79.4513 11.5343 79.0963 11.3531C78.7414 11.172 78.2869 11.0814 77.733 11.0814C76.9747 11.0814 76.3427 11.2598 75.8372 11.6166C75.337 11.968 75.087 12.4154 75.087 12.9589C75.087 13.442 75.2591 13.8235 75.6033 14.1035C75.9475 14.3834 76.4853 14.6167 77.2167 14.8034L79.056 15.2645C80.1639 15.539 80.9894 15.959 81.5326 16.5244C82.0758 17.0844 82.3474 17.8063 82.3474 18.6901C82.3474 19.4147 82.143 20.0625 81.7343 20.6334C81.3309 21.2044 80.7662 21.6545 80.0402 21.9839C79.3141 22.3133 78.4698 22.478 77.5071 22.478C76.2433 22.478 75.1972 22.198 74.369 21.638C73.5408 21.0781 73.0164 20.2601 72.7959 19.1842L74.6029 18.723C74.775 19.4037 75.1004 19.9143 75.5791 20.2546C76.0631 20.595 76.695 20.7652 77.4748 20.7652C78.3622 20.7652 79.0667 20.573 79.5884 20.1888C80.1155 19.799 80.379 19.3324 80.379 18.7889C80.379 18.3497 80.2284 17.9819 79.9272 17.6855C79.6261 17.3835 79.1636 17.1585 78.5397 17.0102L76.4745 16.5162C75.3397 16.2417 74.5061 15.8162 73.9737 15.2398C73.4466 14.6579 73.1831 13.9305 73.1831 13.0577C73.1831 12.344 73.3794 11.7127 73.772 11.1637C74.17 10.6148 74.7105 10.1838 75.3935 9.87092C76.0819 9.55801 76.8617 9.40155 77.733 9.40155C78.9592 9.40155 79.9219 9.67603 80.621 10.225C81.3255 10.774 81.8257 11.4986 82.1215 12.3989Z" fill="white"/>
<path d="M61.9605 14.6058V22.2145H60.0566V9.56624H61.8959V11.5425H62.0573C62.3477 10.9002 62.7887 10.3842 63.3803 9.99444C63.9719 9.59918 64.7356 9.40155 65.6714 9.40155C66.5103 9.40155 67.2445 9.57722 67.8737 9.92856C68.5029 10.2744 68.9923 10.8014 69.3419 11.5096C69.6915 12.2123 69.8663 13.1016 69.8663 14.1776V22.2145H67.9624V14.3093C67.9624 13.3157 67.7097 12.5416 67.2041 11.9872C66.6986 11.4272 66.0048 11.1473 65.1228 11.1473C64.5151 11.1473 63.9719 11.2818 63.4932 11.5508C63.02 11.8198 62.6462 12.2123 62.3719 12.7283C62.0976 13.2443 61.9605 13.8701 61.9605 14.6058Z" fill="white"/>
<path d="M54.6655 22.2145V9.56626H56.5694V22.2145H54.6655ZM55.6336 7.45823C55.2625 7.45823 54.9425 7.32922 54.6736 7.07121C54.4101 6.81319 54.2783 6.50302 54.2783 6.1407C54.2783 5.77839 54.4101 5.46822 54.6736 5.2102C54.9425 4.95219 55.2625 4.82318 55.6336 4.82318C56.0047 4.82318 56.322 4.95219 56.5855 5.2102C56.8544 5.46822 56.9889 5.77839 56.9889 6.1407C56.9889 6.50302 56.8544 6.81319 56.5855 7.07121C56.322 7.32922 56.0047 7.45823 55.6336 7.45823Z" fill="white"/>
<path d="M41.3467 22.2145V5.35022H51.3177V7.16181H43.3473V12.8601H50.8014V14.6717H43.3473V20.4029H51.4467V22.2145H41.3467Z" fill="white"/>
<ellipse cx="26.2149" cy="13.5884" rx="6.58794" ry="6.72464" fill="#16A816"/>
<path d="M20.7628 8.67245C20.7628 12.12 18.0275 14.8971 14.6749 14.8971C11.3222 14.8971 8.58691 12.12 8.58691 8.67245C8.58691 5.22495 11.3222 2.44781 14.6749 2.44781C18.0275 2.44781 20.7628 5.22495 20.7628 8.67245Z" fill="#16A816" stroke="black"/>
<path d="M17.2188 20.313C17.2188 23.7605 14.4836 26.5377 11.1309 26.5377C7.77826 26.5377 5.04297 23.7605 5.04297 20.313C5.04297 16.8655 7.77826 14.0884 11.1309 14.0884C14.4836 14.0884 17.2188 16.8655 17.2188 20.313Z" fill="#16A816" stroke="black"/>
<path d="M23.3976 24.3478C23.3976 27.7953 20.6623 30.5724 17.3096 30.5724C13.957 30.5724 11.2217 27.7953 11.2217 24.3478C11.2217 20.9003 13.957 18.1232 17.3096 18.1232C20.6623 18.1232 23.3976 20.9003 23.3976 24.3478Z" fill="#16A816" stroke="black"/>
<path d="M33.9386 23.8377C33.9386 27.2852 31.2033 30.0623 27.8506 30.0623C24.498 30.0623 21.7627 27.2852 21.7627 23.8377C21.7627 20.3902 24.498 17.613 27.8506 17.613C31.2033 17.613 33.9386 20.3902 33.9386 23.8377Z" fill="#16A816" stroke="black"/>
<path d="M37.4825 14.6087C37.4825 18.0562 34.7472 20.8333 31.3946 20.8333C28.0419 20.8333 25.3066 18.0562 25.3066 14.6087C25.3066 11.1612 28.0419 8.38403 31.3946 8.38403C34.7472 8.38403 37.4825 11.1612 37.4825 14.6087Z" fill="#16A816" stroke="black"/>
<path d="M30.8946 5.79709C30.8946 9.24459 28.1593 12.0217 24.8067 12.0217C21.454 12.0217 18.7188 9.24459 18.7188 5.79709C18.7188 2.34958 21.454 -0.427551 24.8067 -0.427551C28.1593 -0.427551 30.8946 2.34958 30.8946 5.79709Z" fill="#16A816" stroke="black"/>
<path d="M25.7149 15.3971C25.7149 18.8446 22.9796 21.6217 19.627 21.6217C16.2744 21.6217 13.5391 18.8446 13.5391 15.3971C13.5391 11.9496 16.2744 9.17242 19.627 9.17242C22.9796 9.17242 25.7149 11.9496 25.7149 15.3971Z" fill="#16A816" stroke="black"/>
<ellipse cx="25.3516" cy="14.6087" rx="6.58794" ry="6.72464" fill="#FD0F0F"/>
</svg>
