<svg width="153" height="70" viewBox="0 0 153 70" fill="none" xmlns="http://www.w3.org/2000/svg">
<path fill-rule="evenodd" clip-rule="evenodd" d="M23.6044 23C30.7631 23.6929 38.6146 27.2718 43.1181 32.4682C48.8911 39.0494 46.9288 45.6315 38.7301 47.1319C30.5321 48.7485 19.2164 44.5922 13.4434 38.0102C9.05538 32.9292 9.17167 27.8491 13.2125 25.0786L35.9587 41.9363L23.6044 23Z" fill="white"/>
<path fill-rule="evenodd" clip-rule="evenodd" d="M136.296 47.1318L133.41 35.5851C133.062 34.2002 132.832 32.8145 132.602 31.5443H132.486C132.256 32.93 132.139 34.2002 131.793 35.7006L128.905 47.1318H123.941L130.523 23.1154H134.449L141.377 47.1318H136.296ZM60.5528 23.1154L63.4396 34.6613C63.9015 36.047 64.017 37.4335 64.248 38.7021H64.3634C64.5944 37.3172 64.7099 35.9307 65.0563 34.5458L67.9432 23.1154H72.9078L66.3265 47.1318H62.4004L55.4727 23.1154H60.5528ZM76.4859 23.1154H81.2204V47.1318H76.4859V23.1154ZM108.009 23.1154L110.432 37.318L112.395 23.1154H118.746L121.171 47.1318H116.322L115.167 29.8121L114.359 35.7006L112.395 47.1318H108.701L106.392 35.5851L105.583 30.274V29.8121H105.468L104.775 47.1318H99.694L101.773 23.1154H108.009ZM92.9981 23.1154C92.1897 23.6928 91.6132 24.7312 91.1513 25.7705C89.881 28.6574 91.2659 30.9661 92.4207 33.0446C92.537 33.2756 92.7687 33.622 92.8826 33.9684C95.5385 38.3557 96.4623 41.5882 94.6155 46.2064L94.1536 47.131H88.3799C89.0727 46.5528 89.7648 45.7461 90.1112 44.8215C91.4977 41.7037 89.881 38.8176 88.3799 35.9299C86.6485 32.5819 84.8001 29.1185 86.7632 24.384C86.8795 23.9221 87.3414 23.1138 87.3414 23.1138H92.9981V23.1154Z" fill="white"/>
</svg>
