<svg width="28" height="24" viewBox="0 0 28 24" fill="none" xmlns="http://www.w3.org/2000/svg">
<path fill-rule="evenodd" clip-rule="evenodd" d="M28.4006 2.96292C27.3354 3.43196 26.207 3.74161 25.0516 3.88192C26.2679 3.15072 27.1786 2.00416 27.6156 0.653917C26.4656 1.32196 25.213 1.79503 23.9086 2.05392C22.2728 0.305319 19.7345 -0.265801 17.5075 0.613675C15.2804 1.49315 13.8172 3.6445 13.8176 6.03892C13.8177 6.48847 13.8684 6.93562 13.9688 7.37285C9.279 7.14722 4.90674 4.93679 1.94457 1.29392C1.4214 2.18275 1.14843 3.19656 1.15457 4.22792C1.15322 6.17882 2.12674 8.00098 3.74888 9.08412C2.8225 9.05478 1.91656 8.80442 1.10657 8.35392L1.10657 8.42592C1.10657 11.2059 3.0641 13.5988 5.78675 14.1494C4.93036 14.3799 4.03296 14.4139 3.16157 14.2489C3.93025 16.6259 6.12285 18.253 8.62057 18.2999C6.55744 19.9209 4.00933 20.8014 1.38557 20.7999C0.922735 20.7985 0.460347 20.7711 0.000579834 20.7179C2.67508 22.4304 5.78482 23.3393 8.96057 23.3369C19.6956 23.3369 25.5606 14.4499 25.5606 6.75491C25.5606 6.50691 25.5606 6.25491 25.5426 6.00791C26.688 5.18375 27.676 4.1605 28.4596 2.98691L28.4006 2.96292Z" fill="#B0B7C3"/>
</svg>
