<svg width="28" height="20" viewBox="0 0 28 20" fill="none" xmlns="http://www.w3.org/2000/svg">
<path fill-rule="evenodd" clip-rule="evenodd" d="M27.4192 3.2181C27.0892 2.03479 26.1645 1.11013 24.9812 0.780103C22.7982 0.195102 14.0142 0.195102 14.0142 0.195102C14.0142 0.195102 5.25123 0.180103 3.04723 0.780102C1.86392 1.11013 0.939257 2.03479 0.609227 3.2181C0.195556 5.45285 -0.00833199 7.72138 0.000228191 9.9941C-0.00671837 12.258 0.197154 14.5178 0.60921 16.744C0.93982 17.9266 1.86438 18.8504 3.04723 19.1801C5.22723 19.7661 14.0142 19.7661 14.0142 19.7661C14.0142 19.7661 22.7752 19.7661 24.9812 19.1801C26.1639 18.85 27.0881 17.9258 27.4182 16.7431C27.8219 14.5161 28.0174 12.2564 28.0022 9.99311C28.0193 7.72151 27.8241 5.45332 27.4192 3.21808L27.4192 3.2181ZM11.2101 14.1852V5.78516L18.5221 9.98516L11.2101 14.1852Z" fill="#B0B7C3"/>
</svg>
