<svg width="32" height="32" viewBox="0 0 32 32" fill="none" xmlns="http://www.w3.org/2000/svg">
<path d="M11 24H21V26H11V24Z" fill="#FAFAFA"/>
<path d="M13 28H19V30H13V28Z" fill="#FAFAFA"/>
<path d="M23.04 16C22.5303 16.8037 21.9026 17.5261 21.178 18.143C20.107 19.135 19 20.16 19 22H21C21 21.08 21.526 20.55 22.535 19.614C23.7135 18.6355 24.651 17.3989 25.275 16H23.04Z" fill="#FAFAFA"/>
<path d="M20 14.0001C19.8143 14 19.6324 13.9482 19.4745 13.8506C19.3166 13.7529 19.189 13.6132 19.106 13.4471L17.381 10.0001H14V8.0001H18C18.1857 8.0002 18.3676 8.05199 18.5255 8.14966C18.6834 8.24732 18.811 8.38702 18.894 8.5531L20 10.7631L23.106 4.5531C23.1985 4.39858 23.3295 4.27068 23.4862 4.18187C23.6429 4.09307 23.8199 4.04639 24 4.04639C24.1801 4.04639 24.3571 4.09307 24.5138 4.18187C24.6705 4.27068 24.8015 4.39858 24.894 4.5531L26.619 8.0001H30V10.0001H26C25.8143 10 25.6324 9.94822 25.4745 9.85055C25.3166 9.75288 25.189 9.61318 25.106 9.4471L24 7.2371L20.894 13.4471C20.811 13.6132 20.6834 13.7529 20.5255 13.8506C20.3676 13.9482 20.1857 14 20 14.0001Z" fill="#FAFAFA"/>
<path d="M10.8152 18.14C9.87867 17.4257 9.1321 16.4921 8.64122 15.4214C8.15034 14.3507 7.93021 13.1758 8.00022 12C8.00286 9.87908 8.84657 7.84579 10.3463 6.34607C11.846 4.84635 13.8793 4.00265 16.0002 4V2C13.3489 2.00291 10.8071 3.05742 8.93236 4.93215C7.05763 6.80688 6.00313 9.34873 6.00022 12C5.93242 13.4528 6.21076 14.9009 6.81232 16.225C7.41388 17.5491 8.32143 18.7114 9.46022 19.616C10.4722 20.551 11.0002 21.081 11.0002 22H13.0002C13.0002 20.16 11.8902 19.134 10.8152 18.14Z" fill="#FAFAFA"/>
</svg>
