<svg width="32" height="32" viewBox="0 0 32 32" fill="none" xmlns="http://www.w3.org/2000/svg">
<g clip-path="url(#clip0_54_234)">
<path d="M16 30H14V25C13.9992 24.2046 13.6829 23.442 13.1204 22.8796C12.558 22.3171 11.7954 22.0008 11 22H7C6.20459 22.0008 5.44199 22.3171 4.87956 22.8796C4.31712 23.442 4.00079 24.2046 4 25V30H2V25C2.00159 23.6744 2.52888 22.4036 3.46622 21.4662C4.40356 20.5289 5.67441 20.0016 7 20H11C12.3256 20.0016 13.5964 20.5289 14.5338 21.4662C15.4711 22.4036 15.9984 23.6744 16 25V30Z" fill="#FAFAFA"/>
<path d="M9 10C9.59335 10 10.1734 10.1759 10.6667 10.5056C11.1601 10.8352 11.5446 11.3038 11.7716 11.8519C11.9987 12.4001 12.0581 13.0033 11.9424 13.5853C11.8266 14.1672 11.5409 14.7018 11.1213 15.1213C10.7018 15.5409 10.1672 15.8266 9.58527 15.9424C9.00333 16.0581 8.40013 15.9987 7.85195 15.7716C7.30377 15.5446 6.83524 15.1601 6.50559 14.6667C6.17595 14.1734 6 13.5933 6 13C6 12.2044 6.31607 11.4413 6.87868 10.8787C7.44129 10.3161 8.20435 10 9 10ZM9 8C8.0111 8 7.0444 8.29325 6.22215 8.84265C5.39991 9.39206 4.75904 10.173 4.3806 11.0866C4.00217 12.0002 3.90315 13.0055 4.09608 13.9755C4.289 14.9454 4.76521 15.8363 5.46447 16.5355C6.16373 17.2348 7.05465 17.711 8.02455 17.9039C8.99446 18.0969 9.99979 17.9978 10.9134 17.6194C11.827 17.241 12.6079 16.6001 13.1573 15.7779C13.7068 14.9556 14 13.9889 14 13C14 12.3434 13.8707 11.6932 13.6194 11.0866C13.3681 10.48 12.9998 9.92876 12.5355 9.46447C12.0712 9.00017 11.52 8.63188 10.9134 8.3806C10.3068 8.12933 9.65661 8 9 8Z" fill="#FAFAFA"/>
<path d="M30.0001 12.0001C29.8269 12.0024 29.6548 12.0273 29.4881 12.0741L28.4331 11.0191C28.8038 10.4109 28.9999 9.71239 28.9999 9.00011C28.9999 8.28783 28.8038 7.5893 28.4331 6.98111L29.4881 5.92611C29.9211 6.04664 30.3818 6.02038 30.7982 5.85141C31.2147 5.68244 31.5635 5.38029 31.7901 4.99216C32.0167 4.60403 32.1084 4.15177 32.0508 3.70603C31.9932 3.26029 31.7896 2.84617 31.4718 2.52836C31.154 2.21056 30.7399 2.00697 30.2942 1.94938C29.8484 1.8918 29.3962 1.98347 29.008 2.21008C28.6199 2.43669 28.3178 2.78547 28.1488 3.20195C27.9798 3.61842 27.9536 4.07913 28.0741 4.51211L27.0201 5.56711C26.4119 5.19637 25.7134 5.00025 25.0011 5.00025C24.2888 5.00025 23.5903 5.19637 22.9821 5.56711L21.9271 4.51211C22.0476 4.07913 22.0214 3.61842 21.8524 3.20195C21.6834 2.78547 21.3813 2.43669 20.9931 2.21008C20.605 1.98347 20.1527 1.8918 19.707 1.94938C19.2613 2.00697 18.8471 2.21056 18.5293 2.52836C18.2115 2.84617 18.0079 3.26029 17.9504 3.70603C17.8928 4.15177 17.9845 4.60403 18.2111 4.99216C18.4377 5.38029 18.7864 5.68244 19.2029 5.85141C19.6194 6.02038 20.0801 6.04664 20.5131 5.92611L21.5681 6.98111C21.1973 7.5893 21.0012 8.28783 21.0012 9.00011C21.0012 9.71239 21.1973 10.4109 21.5681 11.0191L20.5131 12.0741C20.0801 11.9536 19.6194 11.9798 19.2029 12.1488C18.7864 12.3178 18.4377 12.6199 18.2111 13.0081C17.9845 13.3962 17.8928 13.8485 17.9504 14.2942C18.0079 14.7399 18.2115 15.154 18.5293 15.4719C18.8471 15.7897 19.2613 15.9933 19.707 16.0508C20.1527 16.1084 20.605 16.0167 20.9931 15.7901C21.3813 15.5635 21.6834 15.2147 21.8524 14.7983C22.0214 14.3818 22.0476 13.9211 21.9271 13.4881L22.9821 12.4331C23.5903 12.8038 24.2888 13 25.0011 13C25.7134 13 26.4119 12.8038 27.0201 12.4331L28.0751 13.4881C27.969 13.8913 27.9918 14.3175 28.1403 14.7071C28.2888 15.0967 28.5555 15.4299 28.9031 15.6601C29.2507 15.8904 29.6616 16.006 30.0782 15.9908C30.4948 15.9756 30.8962 15.8303 31.2261 15.5753C31.5559 15.3203 31.7976 14.9685 31.9173 14.5692C32.037 14.1698 32.0287 13.743 31.8934 13.3487C31.7582 12.9543 31.5029 12.6122 31.1633 12.3703C30.8238 12.1285 30.417 11.999 30.0001 12.0001ZM23.0001 9.00011C23.0001 8.60455 23.1174 8.21787 23.3371 7.88897C23.5569 7.56007 23.8693 7.30373 24.2347 7.15235C24.6002 7.00097 25.0023 6.96137 25.3903 7.03854C25.7782 7.11571 26.1346 7.30619 26.4143 7.5859C26.694 7.8656 26.8845 8.22197 26.9617 8.60993C27.0388 8.99789 26.9992 9.40002 26.8478 9.76548C26.6965 10.1309 26.4401 10.4433 26.1112 10.663C25.7823 10.8828 25.3956 11.0001 25.0001 11.0001C24.4698 10.9996 23.9614 10.7887 23.5865 10.4137C23.2115 10.0388 23.0006 9.53038 23.0001 9.00011Z" fill="#FAFAFA"/>
</g>
<defs>
<clipPath id="clip0_54_234">
<rect width="32" height="32" fill="white"/>
</clipPath>
</defs>
</svg>
