<svg width="32" height="32" viewBox="0 0 32 32" fill="none" xmlns="http://www.w3.org/2000/svg">
<path d="M29.9407 13.6878H28.2074C28.2999 14.1577 28.3652 14.6325 28.403 15.11H15.5496L7.38074 24.95C5.38029 23.0079 4.08994 20.4504 3.71661 17.6874C3.34327 14.9245 3.90857 12.1162 5.32186 9.71287C6.73515 7.30956 8.91456 5.45045 11.5106 4.43367C14.1067 3.41689 16.969 3.30134 19.6385 4.10554L20.5274 2.5411C17.6734 1.58344 14.5892 1.55605 11.7187 2.46289C8.84816 3.36973 6.33942 5.16402 4.55359 7.58746C2.76777 10.0109 1.79698 12.9385 1.78096 15.9488C1.76495 18.9591 2.70454 21.8969 4.46449 24.3392C6.22443 26.7815 8.71394 28.6024 11.5747 29.5397C14.4354 30.477 17.5197 30.4825 20.3837 29.5552C23.2477 28.628 25.7436 26.8159 27.5121 24.3798C29.2807 21.9437 30.2306 19.0092 30.2252 15.9989C30.2206 15.2213 30.1522 14.4453 30.0207 13.6789L29.9407 13.6878ZM16.003 28.4433C13.3974 28.442 10.8588 27.6176 8.74963 26.0878L16.3852 16.8878H28.403C28.1784 20.0242 26.7748 22.9592 24.4744 25.103C22.174 27.2467 19.1474 28.4401 16.003 28.4433Z" fill="#FAFAFA"/>
<path d="M23.8649 1.01395L18.7805 9.7784C18.6622 9.95203 18.5943 10.155 18.5843 10.3649C18.5743 10.5747 18.6226 10.7832 18.7238 10.9673C18.8251 11.1514 18.9753 11.3039 19.1579 11.4078C19.3405 11.5117 19.5483 11.5631 19.7583 11.5562H29.9361C30.146 11.5631 30.3538 11.5117 30.5364 11.4078C30.719 11.3039 30.8692 11.1514 30.9705 10.9673C31.0717 10.7832 31.12 10.5747 31.11 10.3649C31.1 10.155 31.0321 9.95203 30.9138 9.7784L25.8294 1.01395C25.7291 0.842448 25.5857 0.700186 25.4134 0.601323C25.241 0.502459 25.0458 0.450439 24.8472 0.450439C24.6485 0.450439 24.4533 0.502459 24.281 0.601323C24.1086 0.700186 23.9652 0.842448 23.8649 1.01395Z" fill="#FAFAFA"/>
</svg>
