<svg width="32" height="32" viewBox="0 0 32 32" fill="none" xmlns="http://www.w3.org/2000/svg">
<path d="M11 2H2V11H4V4H11V2Z" fill="#FAFAFA"/>
<path d="M2 21V30H11V28H4V21H2Z" fill="#FAFAFA"/>
<path d="M30 11V2H21V4H28V11H30Z" fill="#FAFAFA"/>
<path d="M21 30H30V21H28V28H21V30Z" fill="#FAFAFA"/>
<path d="M25.49 10.1301L16.49 5.13007C16.338 5.0423 16.1656 4.99609 15.99 4.99609C15.8145 4.99609 15.6421 5.0423 15.49 5.13007L6.49005 10.1301C6.3393 10.2194 6.21469 10.3468 6.12869 10.4995C6.04269 10.6522 5.99833 10.8248 6.00005 11.0001V21.0001C6.00035 21.1773 6.04774 21.3512 6.13735 21.5041C6.22696 21.6569 6.35558 21.7832 6.51005 21.8701L15.51 26.8701C15.6621 26.9578 15.8345 27.004 16.01 27.004C16.1856 27.004 16.358 26.9578 16.51 26.8701L25.51 21.8701C25.6608 21.7807 25.7854 21.6533 25.8714 21.5006C25.9574 21.3479 26.0018 21.1753 26 21.0001V11.0001C25.9997 10.8229 25.9524 10.6489 25.8627 10.4961C25.7731 10.3432 25.6445 10.2169 25.49 10.1301ZM16 7.14007L22.94 11.0001L16 14.8601L9.06005 11.0001L16 7.14007ZM8.00005 12.7001L15 16.5901V24.3001L8.00005 20.4101V12.7001ZM17 24.3001V16.5901L24 12.7001V20.4101L17 24.3001Z" fill="#FAFAFA"/>
</svg>
