<svg width="32" height="32" viewBox="0 0 32 32" fill="none" xmlns="http://www.w3.org/2000/svg">
<path d="M16 4C18.3734 4 20.6935 4.70379 22.6668 6.02236C24.6402 7.34094 26.1783 9.21509 27.0866 11.4078C27.9948 13.6005 28.2325 16.0133 27.7694 18.3411C27.3064 20.6689 26.1635 22.8071 24.4853 24.4853C22.8071 26.1635 20.6689 27.3064 18.3411 27.7694C16.0133 28.2324 13.6005 27.9948 11.4078 27.0866C9.21509 26.1783 7.34095 24.6402 6.02237 22.6668C4.70379 20.6935 4.00001 18.3734 4.00001 16C4.00001 12.8174 5.26429 9.76515 7.51472 7.51472C9.76516 5.26428 12.8174 4 16 4ZM16 2C13.2311 2 10.5243 2.82109 8.22202 4.35943C5.91973 5.89777 4.12532 8.08427 3.06569 10.6424C2.00607 13.2006 1.72882 16.0155 2.26901 18.7313C2.80921 21.447 4.14258 23.9416 6.10051 25.8995C8.05845 27.8574 10.553 29.1908 13.2687 29.731C15.9845 30.2712 18.7994 29.9939 21.3576 28.9343C23.9157 27.8747 26.1022 26.0803 27.6406 23.778C29.1789 21.4757 30 18.7689 30 16C30 12.287 28.525 8.72601 25.8995 6.1005C23.274 3.475 19.713 2 16 2Z" fill="#FAFAFA"/>
<path d="M23 10.41L21.59 9L17.29 13.3C16.7302 13.0326 16.1012 12.9454 15.4898 13.0503C14.8784 13.1552 14.3145 13.4471 13.8758 13.8858C13.4371 14.3245 13.1452 14.8884 13.0403 15.4998C12.9354 16.1112 13.0226 16.7402 13.29 17.3L9 21.59L10.41 23L14.71 18.7C15.2698 18.9674 15.8987 19.0546 16.5102 18.9497C17.1216 18.8448 17.6855 18.5529 18.1242 18.1142C18.5629 17.6755 18.8548 17.1116 18.9597 16.5002C19.0646 15.8887 18.9774 15.2598 18.71 14.7L23 10.41ZM17 16C17 16.1978 16.9414 16.3911 16.8315 16.5556C16.7216 16.72 16.5654 16.8482 16.3827 16.9239C16.2 16.9996 15.9989 17.0194 15.8049 16.9808C15.6109 16.9422 15.4327 16.847 15.2929 16.7071C15.153 16.5673 15.0578 16.3891 15.0192 16.1951C14.9806 16.0011 15.0004 15.8 15.0761 15.6173C15.1518 15.4346 15.28 15.2784 15.4444 15.1685C15.6089 15.0586 15.8022 15 16 15C16.2652 15 16.5196 15.1054 16.7071 15.2929C16.8946 15.4804 17 15.7348 17 16Z" fill="#FAFAFA"/>
<path d="M16 9C16.8284 9 17.5 8.32843 17.5 7.5C17.5 6.67157 16.8284 6 16 6C15.1716 6 14.5 6.67157 14.5 7.5C14.5 8.32843 15.1716 9 16 9Z" fill="#FAFAFA"/>
</svg>
