<svg width="32" height="32" viewBox="0 0 32 32" fill="none" xmlns="http://www.w3.org/2000/svg">
<path d="M15.9998 2.66675C8.64784 2.66675 2.6665 8.64808 2.6665 16.0001V21.5241C2.6665 22.8894 3.8625 24.0001 5.33317 24.0001H6.6665C7.02013 24.0001 7.35926 23.8596 7.60931 23.6096C7.85936 23.3595 7.99984 23.0204 7.99984 22.6667V15.8094C7.99984 15.4558 7.85936 15.1167 7.60931 14.8666C7.35926 14.6166 7.02013 14.4761 6.6665 14.4761H5.45584C6.19717 9.31608 10.6372 5.33341 15.9998 5.33341C21.3625 5.33341 25.8025 9.31608 26.5438 14.4761H25.3332C24.9795 14.4761 24.6404 14.6166 24.3904 14.8666C24.1403 15.1167 23.9998 15.4558 23.9998 15.8094V24.0001C23.9998 25.4707 22.8038 26.6667 21.3332 26.6667H18.6665V25.3334H13.3332V29.3334H21.3332C24.2745 29.3334 26.6665 26.9414 26.6665 24.0001C28.1372 24.0001 29.3332 22.8894 29.3332 21.5241V16.0001C29.3332 8.64808 23.3518 2.66675 15.9998 2.66675Z" fill="#FAFAFA"/>
</svg>
